<svg xmlns="http://www.w3.org/2000/svg" viewBox="0 0 42 57"><path d="M26.3 33c-9.4 0-17-7.6-17-17 0-4.3 1.4-8 4-11-6.1 2.9-10 8.8-10 16 0 9.9 8.1 18 18 18 7.2 0 13.1-3.9 16-10-3 2.6-6.7 4-11 4z" fill="none" stroke="#d2b775" stroke-width="2" stroke-linecap="round" stroke-linejoin="round" stroke-miterlimit="10"/><path fill="none" stroke="#d2b775" stroke-width="2" stroke-linecap="round" stroke-linejoin="round" stroke-miterlimit="10" d="M23.8 4.9l5.1 5.1 6.5-3.1-3.2 6.4 4.9 5.2-7.1-1-3.4 6.3-1.2-7.1-7-1.3 6.3-3.3zM29.3 50h-18l-1 6h20z"/><linearGradient id="a" gradientUnits="userSpaceOnUse" x1="33.129" y1="34" x2="33.129" y2="17.524"><stop offset="0" stop-color="#d2b775" stop-opacity="0"/><stop offset="1" stop-color="#d2b775"/></linearGradient><path fill="none" stroke="url(#a)" stroke-width="2" stroke-linecap="round" stroke-linejoin="round" stroke-miterlimit="10" d="M29.1 33l8-14.5"/><linearGradient id="b" gradientUnits="userSpaceOnUse" x1="23.068" y1="50" x2="23.068" y2="37"><stop offset="0" stop-color="#d2b775" stop-opacity="0"/><stop offset="1" stop-color="#d2b775" stop-opacity=".5"/></linearGradient><path fill="none" stroke="url(#b)" stroke-width="2" stroke-linecap="round" stroke-linejoin="round" stroke-miterlimit="10" d="M19.7 39l.6 10 6.1-11"/><linearGradient id="c" gradientUnits="userSpaceOnUse" x1="18.845" y1="32.984" x2="18.845" y2="14.371"><stop offset="0" stop-color="#d2b775" stop-opacity="0"/><stop offset="1" stop-color="#d2b775"/></linearGradient><path fill="none" stroke="url(#c)" stroke-width="2" stroke-linecap="round" stroke-linejoin="round" stroke-miterlimit="10" d="M18.4 15.4l.9 16.6"/><linearGradient id="d" gradientUnits="userSpaceOnUse" x1="25.445" y1="33.999" x2="25.445" y2="22.762"><stop offset="0" stop-color="#d2b775" stop-opacity="0"/><stop offset="1" stop-color="#d2b775" stop-opacity=".9"/></linearGradient><path fill="none" stroke="url(#d)" stroke-width="2" stroke-linecap="round" stroke-linejoin="round" stroke-miterlimit="10" d="M26.6 23.8L24.3 33"/></svg>