<svg xmlns="http://www.w3.org/2000/svg" width="32" height="57" viewBox="0 0 32 57"><path fill="#d2b775" d="M26 57H6c-.3 0-.6-.1-.8-.4s-.2-.5-.2-.8l1-6c.1-.4.5-.8 1-.8h18c.5 0 .9.4 1 .8l1 6c0 .3 0 .6-.2.8s-.5.4-.8.4zM7.2 55h17.6l-.7-4H7.8l-.6 4z"/><linearGradient id="a" gradientUnits="userSpaceOnUse" x1="16" y1="7" x2="16" y2="49"><stop offset="0" stop-color="#d2b775" stop-opacity="0"/><stop offset="1" stop-color="#d2b775"/></linearGradient><path fill="url(#a)" d="M16 49c-.3 0-.5-.1-.7-.3l-8-8c-.2-.2-.3-.4-.3-.7V27c0-.3.1-.5.3-.7l7.3-7.3L4.3 8.7c-.4-.4-.4-1 0-1.4s1-.4 1.4 0L16 17.6 26.3 7.3c.4-.4 1-.4 1.4 0s.4 1 0 1.4L17.4 19l7.3 7.3c.2.2.3.4.3.7v13c0 .3-.1.5-.3.7l-8 8c-.2.2-.4.3-.7.3zm-7-9.4l7 7 7-7V27.4l-7-7-7 7v12.2z"/><linearGradient id="b" gradientUnits="userSpaceOnUse" x1="29" y1="20.588" x2="29" y2="37.174"><stop offset="0" stop-color="#d2b775" stop-opacity=".05"/><stop offset=".8" stop-color="#d2b775"/></linearGradient><path fill="url(#b)" d="M31 37.2c-.6 0-1-.4-1-1v-8.5c0-1.1-.4-2.1-1.2-2.8l-2.5-2.5c-.4-.4-.4-1 0-1.4s1-.4 1.4 0l2.5 2.5c1.1 1.1 1.8 2.7 1.8 4.2v8.5c0 .5-.4 1-1 1z"/><path fill="#d2b775" d="M30 38.2c-.5 0-1-.2-1.4-.6l-9.8-9.8c-1.1-1.1-1.8-2.6-1.8-4.2v-8.9c0-1.6.6-3.1 1.8-4.2L28.6.7c.6-.7 1.4-.9 2.2-.5.7.3 1.2 1 1.2 1.8v8.5c0 1.6-.6 3.1-1.8 4.2l-8.5 8.5c-.4.4-1 .4-1.4 0s-.4-1 0-1.4l8.5-8.5c.8-.8 1.2-1.8 1.2-2.8V2l-9.8 9.8c-.7.7-1.2 1.8-1.2 2.8v8.9c0 1.1.4 2.1 1.2 2.8l9.8 9.8c0-.6.4-1 1-1s1 .4 1 1c0 .8-.5 1.5-1.2 1.8-.3.2-.5.3-.8.3zm-28 0c-.3 0-.5 0-.8-.2-.7-.3-1.2-1-1.2-1.8v-8.5c0-1.6.6-3.1 1.8-4.2l8.5-8.5c.4-.4 1-.4 1.4 0s.4 1 0 1.4l-8.5 8.5c-.8.7-1.2 1.7-1.2 2.8v8.5l9.8-9.8c.8-.8 1.2-1.8 1.2-2.8v-8.9c0-1.1-.4-2.1-1.2-2.8L2 2c0 .6-.4 1-1 1s-1-.4-1-1C0 1.2.5.5 1.2.2 2-.2 2.8 0 3.4.6l9.8 9.8c1.1 1.1 1.8 2.7 1.8 4.2v8.9c0 1.6-.6 3.1-1.8 4.2l-9.8 9.8c-.4.5-.9.7-1.4.7z"/><linearGradient id="c" gradientUnits="userSpaceOnUse" x1="3" y1="17.588" x2="3" y2="1.002"><stop offset="0" stop-color="#d2b775" stop-opacity=".05"/><stop offset=".8" stop-color="#d2b775"/></linearGradient><path fill="url(#c)" d="M5 17.6c-.3 0-.5-.1-.7-.3l-2.5-2.5C.6 13.6 0 12.1 0 10.5V2c0-.6.4-1 1-1s1 .4 1 1v8.5c0 1.1.4 2.1 1.2 2.8l2.5 2.5c.4.4.4 1 0 1.4-.2.3-.4.4-.7.4z"/><linearGradient id="d" gradientUnits="userSpaceOnUse" x1="1512" y1="1922" x2="1512" y2="1912" gradientTransform="rotate(180 763 976.5)"><stop offset="0" stop-color="#d2b775" stop-opacity="0"/><stop offset="1" stop-color="#d2b775"/></linearGradient><path fill="url(#d)" d="M10 41c-.3 0-.5-.1-.7-.3-.4-.4-.4-1 0-1.4l8-8c.4-.4 1-.4 1.4 0s.4 1 0 1.4l-8 8c-.2.2-.4.3-.7.3z"/></svg>