<svg xmlns="http://www.w3.org/2000/svg" viewBox="31 360.3 393.9 128.2"><path fill="#fff" d="M424.3 405.5c-1.6-5.5-5.9-8.2-11.3-9.4-2.3-.4-5.1-.8-7.8-.8h-85.9c-.8 0-2-.4-2.7.4-.8 4.3-2 8.6-2.7 12.9-3.1-6.3-7.4-9.8-13.7-11.7-2.3-.8-5.1-1.6-7.8-1.6H258c-3.1 15.6-6.3 31.3-9.4 46.9h-.8c-2.3-15.6-4.7-31.3-7.4-46.9h-30.1c-9.4 17.2-18.8 34.4-28.1 51.6-.8-2.7-.8-5.5-.8-7.8.4-5.9-2-9.8-8.2-12.1 3.5-1.2 6.6-2 9-3.9 5.1-3.9 7.8-9.4 6.6-16-1.2-6.3-5.9-9-11.3-10.5-2-.4-3.9-.8-5.5-.8h-37.9c-.8 4.3-2 9.4-2.7 14.5h28.1c2.3 0 5.1.8 5.9 3.9.4 2.7-.8 5.5-3.5 6.6-1.2.4-2.7.8-3.9.8h-28.9c-2.3 11.3-4.3 23-6.6 34.4h21.9c1.6-7 2.7-13.7 4.3-20.7h2.7c7 0 7.8.8 7.8 7.8 0 4.3-.8 8.6-.4 12.9H201c2-3.9 3.5-7.4 5.1-10.9h19.1c.4 3.9.8 7.4.8 10.9.8 0 .8.4 1.2.4h52.7c3.1 0 6.3-.8 9.8-1.6 7-2 12.5-5.5 17.6-11.3-.8 4.7-1.6 8.6-2.3 12.5h47.7c1.2-5.1 2-10.2 3.1-15.2h-25.4c.4-2.7.8-5.1 2-7.8h20.7c.8-4.7 2-9.4 2.7-14.5h-21.1c.8-2.7.8-5.5 2-8.2h59.4c.8 0 2 .4 2.7.4 2.7.8 3.5 2.7 3.1 5.5-.8 3.5-3.1 5.5-7.8 5.5h-29.3c-2.3 10.9-4.3 22.7-6.6 34h22.7c1.6-7 2.7-14.1 4.3-21.1h2.3c7.4 0 8.2.8 8.2 8.6v12.1h23v-15.2c.4-6.3-1.6-10.9-8.6-13.3 4.7-1.2 8.6-3.1 11.7-6.3 2.5-4.1 4.1-9.2 2.5-15zm-210.9 23c2.7-6.3 5.5-12.1 8.2-18h.4c.4 5.9.8 11.7 1.6 18h-10.2zm73.8 5.1c-2.7 5.5-7.4 7.4-14.8 6.6 2-9.8 3.9-19.5 5.9-29.7 2.7-.4 5.5-.4 8.2.4 2.7.8 3.9 3.1 4.3 5.9.3 5.5-.9 11.3-3.6 16.8z"/><path fill="#fff" d="M158.7 384.8H129c-4.7 23.4-9 47.3-13.7 70.7H89.5c4.7-23.8 9-47.3 13.7-70.7H73.1c1.2-6.3 2.3-12.1 3.5-18.4h85.6c-1.2 6.2-2.4 12.1-3.5 18.4z"/><path fill="#E7282B" d="M90.7 395.7v.8c-.8 4.3-1.6 8.6-2.3 13.3H71.6c-5.9 0-9.8 2.7-12.5 7.4-2.3 4.7-3.1 9.4-3.1 14.5 0 5.5 2.7 8.2 8.2 8.2h18c-1.2 5.1-2 9.8-3.1 14.8-2.3.8-4.7.4-7 .4-6.3 0-12.5.4-18.8-.4-11.3-.8-18-7-19.9-18.4-2.3-13.3 5.1-30.1 16.8-36.7 5.5-2 10.9-3.5 16.8-3.9h23.7z"/></svg>