<svg xmlns="http://www.w3.org/2000/svg" viewBox="31 360.3 676.1 128.2"><path fill="#fff" d="M535.4 406.4c-1.6-2-4-3.1-6.6-3.1-2.8 0-5 1-6.6 2.9-2.4 2.9-2.8 6.8-2.8 10.5h18.2c.1-3.5.1-7.3-2.2-10.3zm-436 47.1l-3.1-43.7c-.3-4.6-.5-9.1-.6-13.7-.8 4.3-1.9 8.4-3.1 12.6l-12.9 44.8h-14l-11.7-43c-1.3-4.8-2.5-9.6-3.3-14.5-.1 4.9-.3 9.8-.6 14.7l-2.8 42.7H31l7.7-81.7h21.1l10.7 41c1.2 4.3 1.7 8.7 2.8 12.9.8-4.5 2.1-8.8 2.9-13.3l11.1-40.6h20.9l7.3 81.8H99.4zm43.2-25.2c0 8.5 3.8 14.8 12.9 14.8 5.7 0 10.7-2.5 15.1-6l6.1 9.4c-6.4 5.3-14.4 8.4-22.7 8.4-11.9 0-21.5-6.2-26.1-17.2-3.3-8-3.4-20.3-.3-28.5 4.1-10.8 13-17.4 24.4-17.4 21.8 0 25.4 19.1 25.4 36.5h-34.8zm18.2-17.2c-.5-4.5-4-7.8-8.5-7.8-4.8 0-8.2 3.5-8.9 8.1-.3 1.8-.5 3.6-.5 5.4h18.2c0-1.9-.1-3.8-.3-5.7zm57.9 41.1c-7.7 3.6-19.7 4.4-26.3-1.9-3.8-3.7-3.9-8.6-3.9-13.5v-32.7h-6v-10.9h6c0-4.7-.2-9.5.6-14.2l16-4c-.5 6.1-.9 12.1-.9 18.2h14.1l-4 10.8h-10.1v30.2c0 4.8.4 9.6 6.2 9.6 1.9 0 4.5-.3 6.2-1.2l2.1 9.6zm49.7 4.4c-3.5-1.6-6.6-3.9-8.5-7.3-4.6 4.6-9.1 6.5-15.8 6.5-12.1 0-20.7-6.5-20.7-18.8 0-3.9.8-7.4 2.4-10.4 5.1-9.6 20.6-11.4 30.1-10.2v-2.5c0-5.4-.9-9.1-6.9-9.1-6.3 0-12.6 3.2-17.5 6.9l-6.8-11.3c7.6-4.8 16.7-8.6 25.8-8.6 15.4 0 20.6 7.7 20.6 21.4v20.2c0 5.8.4 9.7 5.7 13.4l-8.4 9.8zM243 429.4c-2.1 1.6-2.9 4.6-2.7 7.5.3 3.9 2.7 7.4 6.9 7.4 3.2 0 6.1-1.7 8.2-4.1l.2-13c-3.7-.1-9.5-.3-12.6 2.2zm94.8-44.2h-19.5v68.3h-16.7v-68.3h-20v-13.5h59l-2.8 13.5zm33.9 21.8l4.4-13.9c-7.5-3.9-15.4 1.3-20 7.3-.2-3-.9-6-2.5-8.6l-14.1 3.8c2 5.6 2.2 11.8 2.2 17.7v40.2h15.8v-42.6c3.3-3.9 9.4-7 14.2-3.9zm50.5 49.6c-3.5-1.6-6.6-3.9-8.5-7.3-4.7 4.7-9.3 6.5-15.8 6.5-8.3 0-15.1-2.6-19-10.1-1.2-2.3-1.8-5.2-1.8-8.7 0-7.9 3.2-14.1 10.5-17.5 6.3-2.9 15.2-3.9 22-3.1 0-5.4.4-11.5-6.9-11.5-6.3 0-12.6 3.2-17.5 6.9l-6.7-11.4c7.6-4.8 16.7-8.6 25.8-8.6 15.1 0 20.6 7.2 20.6 21.4v20.2c0 6 .5 9.7 5.7 13.4l-8.4 9.8zm-25.4-27.2c-2.1 1.6-2.7 4.1-2.7 6.6 0 4.2 2.3 8.2 6.9 8.2 3.2 0 6.1-1.7 8.2-4.1l.2-13c-3.7 0-9.5-.2-12.6 2.3zm80.6 24.1c-.6-1.1-.9-2.3-.9-3.5-4.1 3.3-8.6 4.9-13.9 4.9-7.4 0-14-2.8-18.6-8.7-5-6.1-6.5-14.1-6.5-21.8 0-8.2 1.7-17.2 6.9-23.8 4.6-5.7 11.6-8.8 18.9-8.8 4 0 7.9 1 10.7 4-.5-2.9-.5-5.8-.5-8.7v-20.7l15.5 2.5v62.6c0 7.1-.5 15.3 2.2 22h-13.8zm-3.5-44.6c-2.5-2.3-5.4-3.9-8.8-3.9-9.4 0-9.9 12.8-9.9 19.5 0 7.3.4 17.2 10.4 17.2 3.3 0 6.2-1.3 8.4-3.9v-28.9h-.1zm121.3-1.9c-4.8-3.1-10.9 0-14.2 3.9v42.6h-15.8v-40.3c0-5.8-.3-12.1-2.2-17.7l14.1-3.8c1.6 2.6 2.3 5.6 2.5 8.6 4.6-6 12.5-11.2 20-7.3l-4.4 14zm-76 21.3c0 8.5 3.8 14.8 12.9 14.8 5.6 0 10.8-2.5 15.1-6l6.1 9.4c-6.4 5.3-14.4 8.4-22.7 8.4-7.6 0-15-2.6-20.4-8-6.1-6.4-8.1-15.1-8.1-23.7 0-5.7.7-10.4 2.1-14 4.1-10.7 12.9-17.4 24.4-17.4 16 0 24.1 11.4 25.2 26.9.2 3.2.2 6.4.2 9.6h-34.8z"/><path fill="#F27D3A" d="M694.4 385.2v45.6c0 1.1 0 1.6-.5 2.6h13.2v20.7h-13.2c0 1.1.5 2.1.5 3.2v28.6l-22.8 2.6v-32.8c0-.5 0-1.6.5-2.6-1.6.5-2.6.5-3.7.5h-49.8v-16.4l34.4-76.8h25l-26 58.3c-1.1 2.1-1.6 3.7-2.6 5.3-.5 1.1-1.1 2.1-1.6 3.7-.5 1.1-1.1 2.1-1.6 3.2s-1.6 2.1-2.1 3.2c1.1 0 1.1-.5 1.6-.5h26.9v-3.2c0-4.8 0-7.9.5-11.1 0-2.6.5-5.3 1.1-7.9l2.1-21.2 18.1-5z"/></svg>